<svg id="Capa_1" enable-background="new 0 0 512 512" height="512" viewBox="0 0 512 512" width="512" xmlns="http://www.w3.org/2000/svg"><g><g><g><g><g><circle cx="256" cy="256" fill="#dbeeff" r="256"/></g></g></g></g><path d="m289.003 247.718-99.396-99.396-24.211 30.776-118.618 9.887 93.841 93.841 11.872 29.341 58.841 58.841-3.979 11.525 119.52 119.52c101.368-29.145 176.927-119.23 184.489-228.051l-29.438-29.438z" fill="#bfe1ff"/><g><path d="m256.648 225.998c-20.096 3.499-38.205 7.444-53.092 10.839-65.296 14.892-76.752-33.221-76.752-33.221s62.802 5.752 62.802-55.294c0 0-13.675 13.675-28.814 13.675s-40.535-3.166-50.302 14.045c-9.767-17.211-35.163-14.045-50.303-14.045s-28.814-13.675-28.814-13.675c0 61.047 62.802 55.294 62.802 55.294s11.007 57.221 53.069 103.305l76.669 41.437 32.734-11.545 10.002-63.813z" fill="#424edd"/><path d="m256.648 225.998v110.816l220.775-77.864c3.452-8.776 4.5-14.384 4.5-14.384-66.327-37.144-157.227-30.418-225.275-18.568z" fill="#2633d7"/><g><path d="m256.648 323.464c-29.005 6.191-65.326 3.832-109.404-16.542 24.552 26.9 59.692 49.994 109.404 55.706l10.001-19.628z" fill="#f7f9fa"/><path d="m256.648 323.464v39.163c7.696.884 15.729 1.366 24.138 1.366 140.144 0 184.147-73.294 196.636-105.043h-130.771c0-.001-28.613 51.41-90.003 64.514z" fill="#e5e5e8"/></g><path d="m244.494 292.822s5.143 57.141-37.142 89.712c0 0-1.181-25.305-5.714-39.999s18.285-49.713 18.285-49.713z" fill="#2633d7"/><circle cx="312.334" cy="252.094" fill="#373c41" r="6.855"/></g></g></svg>